<?xml version="1.0" encoding="utf-8"?>
<!-- Generator: Adobe Illustrator 24.0.1, SVG Export Plug-In . SVG Version: 6.00 Build 0)  -->
<svg version="1.1" id="Layer_3" xmlns="http://www.w3.org/2000/svg" xmlns:xlink="http://www.w3.org/1999/xlink" x="0px" y="0px"
	 viewBox="0 0 225.73 141.73" style="enable-background:new 0 0 225.73 141.73;" xml:space="preserve">
<style type="text/css">
	.st0{fill:#231F20;}
	.st1{fill:#FFFFFF;}
</style>
<symbol  id="New_Symbol" viewBox="-330.73 -207 661.47 414">
	<rect id="XMLID_41_" x="-330.73" y="153" class="st0" width="661.47" height="54"/>
	<rect id="XMLID_40_" x="-330.73" y="63" class="st0" width="661.47" height="54"/>
	<rect id="XMLID_33_" x="-330.73" y="-27" class="st0" width="661.47" height="54"/>
	<rect id="XMLID_32_" x="-330.73" y="-117" class="st0" width="661.47" height="54"/>
	<rect id="XMLID_31_" x="-330.73" y="-207" class="st0" width="661.47" height="54"/>
</symbol>
<g>
	<g>
		<g>
			<path class="st1" d="M119.84,56.23c-5.43-6.51-8.59-14.75-14.31-21C87.62,15.66,72.83,7.79,51.96,6.71
				c-8.85-0.45-18.23,1.04-25.52,6.38c-9.97,7.3-17.98,19.2-18.8,31.76c-0.51,7.81,1.92,15.63,6.63,21.87
				c4.78,6.33,11.77,10.83,19.5,12.59c5.92,1.35,11.89,2.31,17.96,2.52c12.31,0.41,25.22-2.67,34.34-10.95
				c-1.16,1.06-6.52,0.81-8.07,0.93c-2.7,0.2-5.41,0.29-8.12,0.27c-5.4-0.04-11.05-0.31-16.33-1.49c4.47-1.44,11.08-0.21,15.84-0.42
				c5.6-0.24,11.2-0.69,16.75-1.46c11.42-1.57,22.71-4.44,33.22-9.23c0.4-0.18,0.76-0.46,1.01-0.83
				C121.02,57.67,120.4,56.9,119.84,56.23z M70.3,48.01c-8.39,2.01-17.01,3.55-25.67,3.7c-5.98,0.11-12.96-1.2-14.87-7.62
				c-1.6-5.4,1.59-11,6.57-13.21c7.51-3.33,16.28-1.3,23.33,2.21c3.15,1.57,6.11,3.47,8.99,5.48c0.32,0.23,0.64,0.46,0.96,0.69
				c1.05,0.78,2.09,1.59,3.19,2.3c0.96,0.63,2.3,1.15,2.58,2.42C75.9,46.47,71.95,47.61,70.3,48.01z"/>
		</g>
	</g>
	<g>
		<path class="st1" d="M9.01,133.1c0.76-0.13,1.38-0.49,1.85-1.09c0.48-0.6,0.84-1.16,1.09-1.66l14.17-30.91
			c0.38-0.89,0.68-1.6,0.9-2.14c0.22-0.54,0.33-1.06,0.33-1.57c0-0.38-0.08-0.62-0.24-0.71c-0.16-0.1-0.33-0.21-0.52-0.33v-1.71
			h14.36v1.71c-0.19,0.13-0.4,0.22-0.62,0.29c-0.22,0.06-0.33,0.32-0.33,0.76c0,0.38,0.14,0.84,0.43,1.38
			c0.29,0.54,0.59,1.16,0.9,1.85l15.41,32.33c0.32,0.57,0.67,0.98,1.05,1.24c0.38,0.25,0.79,0.44,1.24,0.57v1.71h-13.5v-1.43
			c0.32,0,0.65-0.09,1-0.29c0.35-0.19,0.52-0.54,0.52-1.05c0-0.38-0.06-0.73-0.19-1.05c-0.13-0.32-0.29-0.73-0.48-1.24l-2.57-5.42
			H23.47l-2.66,5.14c-0.25,0.51-0.46,0.97-0.62,1.38c-0.16,0.41-0.24,0.78-0.24,1.09c0,0.51,0.16,0.82,0.48,0.95
			c0.32,0.13,0.76,0.19,1.33,0.19v1.71H9.01V133.1z M40.78,117.31l-7.7-15.98l-6.75,15.98H40.78z"/>
		<path class="st1" d="M68.17,133.1c1.14,0,1.71-0.48,1.71-1.43V96.1c0-0.95-0.57-1.43-1.71-1.43v-1.71h13.98v1.71
			c-0.44,0.06-0.67,0.22-0.67,0.48c0,0.32,0.7,1.17,2.09,2.57l22.83,24.16V96.1c0-0.95-0.63-1.43-1.9-1.43v-1.71h11.6v1.71
			c-1.14,0-1.71,0.48-1.71,1.43v35.57c0,0.95,0.57,1.43,1.71,1.43v1.71h-12.36v-1.71c0.44,0,0.67-0.16,0.67-0.48
			c0-0.25-0.3-0.7-0.9-1.33c-0.6-0.63-1.28-1.36-2.04-2.19L77.87,104v27.67c0,0.95,0.67,1.43,2,1.43v1.71h-11.7V133.1z"/>
		<path class="st1" d="M141.68,133.1c0.32,0,0.63-0.11,0.95-0.33c0.32-0.22,0.48-0.59,0.48-1.09V100h-12.36
			c-0.51,0-0.98,0.13-1.43,0.38c-0.44,0.25-0.67,0.67-0.67,1.24h-1.71V90.68h1.71c0,0.89,0.22,1.49,0.67,1.81
			c0.44,0.32,0.92,0.48,1.43,0.48h33.86c0.51,0,0.98-0.16,1.43-0.48c0.44-0.32,0.67-0.92,0.67-1.81h1.71v10.94h-1.71
			c0-0.57-0.22-0.98-0.67-1.24c-0.44-0.25-0.92-0.38-1.43-0.38h-12.36v31.67c0,0.95,0.57,1.43,1.71,1.43v1.71h-12.27V133.1z"/>
		<path class="st1" d="M182,120.26c0,0.25-0.02,0.52-0.05,0.81c-0.03,0.29-0.05,0.59-0.05,0.9c0,0.95,0.6,1.82,1.81,2.62
			c1.2,0.79,2.65,1.46,4.33,2c1.68,0.54,3.36,0.97,5.04,1.28c1.68,0.32,3,0.48,3.95,0.48c0.89,0,1.98-0.06,3.28-0.19
			c1.3-0.13,2.58-0.4,3.85-0.81c1.27-0.41,2.34-0.98,3.23-1.71c0.89-0.73,1.33-1.7,1.33-2.9c0-1.39-0.78-2.41-2.33-3.04
			c-1.55-0.63-3.5-1.12-5.85-1.47c-2.35-0.35-4.88-0.7-7.61-1.05c-2.73-0.35-5.26-0.92-7.61-1.71c-2.35-0.79-4.3-1.93-5.85-3.42
			c-1.55-1.49-2.33-3.6-2.33-6.32c0-4.06,1.68-7.29,5.04-9.7c3.36-2.41,8.08-3.61,14.17-3.61c2.98,0,5.53,0.24,7.66,0.71
			c2.12,0.48,3.91,1,5.37,1.57c1.46,0.57,2.65,1.09,3.57,1.57c0.92,0.48,1.6,0.71,2.04,0.71c0.51,0,0.89-0.08,1.14-0.24
			c0.25-0.16,0.57-0.33,0.95-0.52l1.05,1.05l-4.76,8.94l-1.71-0.57c-0.06-0.38-0.13-0.76-0.19-1.14c-0.06-0.38-0.35-0.76-0.86-1.14
			c-1.27-1.08-3.23-2-5.9-2.76s-5.64-1.14-8.94-1.14c-1.27,0-2.47,0.08-3.61,0.24c-1.14,0.16-2.16,0.43-3.04,0.81
			c-0.89,0.38-1.59,0.87-2.09,1.47c-0.51,0.6-0.76,1.35-0.76,2.23c0,1.4,0.78,2.39,2.33,3c1.55,0.6,3.5,1.08,5.85,1.43
			c2.34,0.35,4.88,0.7,7.61,1.05c2.73,0.35,5.26,0.94,7.61,1.76c2.34,0.82,4.29,2.03,5.85,3.61c1.55,1.59,2.33,3.77,2.33,6.56
			c0,2.79-0.68,5.07-2.04,6.85c-1.36,1.78-3.06,3.17-5.09,4.18c-2.03,1.02-4.27,1.68-6.71,2c-2.44,0.32-4.74,0.48-6.9,0.48
			c-2.16,0-4.3-0.21-6.42-0.62c-2.12-0.41-4.06-0.89-5.8-1.43c-1.74-0.54-3.22-1.05-4.42-1.52c-1.21-0.48-1.93-0.71-2.19-0.71
			c-0.44,0-0.83,0.19-1.14,0.57l-1.33-0.95l4.38-10.65L182,120.26z"/>
	</g>
</g>
</svg>
